<svg width="413" height="118" viewBox="0 0 413 118" fill="none" xmlns="http://www.w3.org/2000/svg">
<rect width="413" height="118" fill="white"/>
<rect width="121" height="118" rx="25" fill="#B679CB"/>
<path d="M67.25 78.5C63.0833 82.4583 59.1875 85.3542 55.5625 87.1875C51.9792 88.9792 48.3542 89.875 44.6875 89.875C40.3125 89.875 36.5625 88.8333 33.4375 86.75C30.3125 84.6667 27.9167 81.6667 26.25 77.75C24.625 73.8333 23.8125 69.2083 23.8125 63.875C23.8125 57.25 25.5417 50.4167 29 43.375C32.5 36.2917 37.1875 29.75 43.0625 23.75C48.9375 17.75 55.3333 12.9583 62.25 9.375C69.1667 5.79167 75.8958 4 82.4375 4C92.9375 4 98.1875 8.60417 98.1875 17.8125C98.1875 21.3958 97.2083 24.875 95.25 28.25C93.3333 31.625 90.7708 34.3333 87.5625 36.375C84.3542 38.4167 80.9583 39.4375 77.375 39.4375C75.9167 39.4375 75.1875 38.9167 75.1875 37.875C75.1875 37.5833 75.4375 36.875 75.9375 35.75C77.0625 33.5417 77.9167 31.1458 78.5 28.5625C79.1667 24.8958 79.5 22.0833 79.5 20.125C79.5 16.625 79.0833 14.875 78.25 14.875C76.2917 14.875 73.5417 16.2708 70 19.0625C66.5 21.8542 63.625 24.8958 61.375 28.1875C59.3333 31.0625 57.4375 34.4792 55.6875 38.4375C53.9792 42.3958 52.625 46.3958 51.625 50.4375C50.6667 54.4792 50.1875 58.1875 50.1875 61.5625C50.1875 64.7708 50.875 67.4167 52.25 69.5C53.625 71.5417 55.4167 72.5625 57.625 72.5625C61.4167 72.5625 65.6875 67.75 70.4375 58.125C71.9375 55.4583 72.9375 53.7708 73.4375 53.0625C73.9792 52.3125 74.7292 51.6458 75.6875 51.0625C78.2708 49.4375 81.5208 48 85.4375 46.75C89.3958 45.4583 92.4583 44.8125 94.625 44.8125C97.1667 44.8125 98.4375 46.0833 98.4375 48.625C98.4375 48.8333 98.3125 49.75 98.0625 51.375C95.1042 63.5833 91.5208 74.75 87.3125 84.875C83.1042 95 79.0208 102.208 75.0625 106.5C73.2292 108.458 70.5208 110.083 66.9375 111.375C63.3542 112.667 59.6875 113.312 55.9375 113.312C52.8542 113.312 49.7083 112.792 46.5 111.75C43.3333 110.708 40.7292 109.375 38.6875 107.75C36.6458 106.125 35.625 104.521 35.625 102.938C35.625 101.896 36.2083 100.708 37.375 99.375C38.5417 98.0417 40.125 96.7083 42.125 95.375C45.2917 93.25 47.3958 92.1875 48.4375 92.1875C49.5208 92.1875 51.0417 93.375 53 95.75C55.375 98.5 57.8958 100.771 60.5625 102.562C62.0208 99.1458 63.4167 94.9583 64.75 90C66.125 85.0417 66.9583 81.2083 67.25 78.5Z" fill="#042E46"/>
<path d="M198.812 61.3125V81.25C198.812 87.5 197.792 92.7708 195.75 97.0625C193.75 101.312 190.75 104.521 186.75 106.688C182.792 108.854 177.875 109.938 172 109.938C166.042 109.938 161.042 108.917 157 106.875C152.958 104.833 149.917 101.812 147.875 97.8125C145.833 93.8125 144.812 88.8542 144.812 82.9375V45.8125C144.812 39.5625 145.812 34.3125 147.812 30.0625C149.854 25.8125 152.854 22.6042 156.812 20.4375C160.812 18.2708 165.75 17.1875 171.625 17.1875C177.125 17.1875 181.75 18.1875 185.5 20.1875C189.25 22.1875 192.167 25.1875 194.25 29.1875C196.333 33.1458 197.604 38.1458 198.062 44.1875H188.312C187.896 40.0625 187 36.6458 185.625 33.9375C184.292 31.1875 182.458 29.1458 180.125 27.8125C177.792 26.4375 174.958 25.75 171.625 25.75C167.75 25.75 164.479 26.5 161.812 28C159.188 29.5 157.188 31.75 155.812 34.75C154.479 37.7083 153.812 41.3958 153.812 45.8125V82.9375C153.812 86.9792 154.5 90.375 155.875 93.125C157.25 95.8333 159.292 97.8958 162 99.3125C164.708 100.688 168.042 101.375 172 101.375C175.875 101.375 179.104 100.646 181.688 99.1875C184.271 97.7292 186.229 95.5417 187.562 92.625C188.896 89.6667 189.562 85.9583 189.562 81.5V69.6875H172V61.3125H198.812ZM224.062 91.9375C224.062 94.6875 224.708 96.8333 226 98.375C227.292 99.875 229.104 100.625 231.438 100.625H236.5V109H230.25C225.417 109 221.667 107.5 219 104.5C216.375 101.5 215.062 97.2708 215.062 91.8125V18.125H224.062V91.9375ZM282.75 64.6875C282.75 60.3125 281.562 56.9167 279.188 54.5C276.812 52.0833 273.438 50.875 269.062 50.875C265.979 50.875 263.25 51.6042 260.875 53.0625C258.542 54.5208 256.812 56.5833 255.688 59.25L248.062 57C249.271 52.5833 251.708 49.1667 255.375 46.75C259.042 44.2917 263.604 43.0625 269.062 43.0625C273.771 43.0625 277.792 43.9167 281.125 45.625C284.5 47.2917 287.062 49.7083 288.812 52.875C290.562 56.0417 291.438 59.875 291.438 64.375V109H282.75V64.6875ZM266.25 109.938C259.625 109.938 254.562 108.312 251.062 105.062C247.562 101.771 245.812 97.0208 245.812 90.8125C245.812 84.1042 247.583 79.0208 251.125 75.5625C254.708 72.0625 259.917 70.3125 266.75 70.3125H283.312L284.188 77.75H266.812C262.729 77.75 259.625 78.8542 257.5 81.0625C255.417 83.2708 254.375 86.5208 254.375 90.8125C254.375 94.5625 255.521 97.4375 257.812 99.4375C260.146 101.396 263.521 102.375 267.938 102.375C272.729 102.375 276.396 101.562 278.938 99.9375C281.479 98.3125 282.75 95.9375 282.75 92.8125L284.062 99.75C283.396 101.958 282.271 103.833 280.688 105.375C279.104 106.875 277.083 108.021 274.625 108.812C272.208 109.562 269.417 109.938 266.25 109.938ZM342.75 18.125H351.75V109H342.75V18.125ZM325.812 110C321.771 110 318.292 109.104 315.375 107.312C312.5 105.521 310.292 102.917 308.75 99.5C307.25 96.0833 306.5 91.9792 306.5 87.1875V66.375C306.5 61.4583 307.25 57.2708 308.75 53.8125C310.25 50.3125 312.417 47.6458 315.25 45.8125C318.083 43.9792 321.5 43.0625 325.5 43.0625C329.583 43.0625 333.208 44.0417 336.375 46C339.583 47.9167 342.146 50.8333 344.062 54.75L342.75 65.4375C342.75 62.6875 342.208 60.2292 341.125 58.0625C340.083 55.8542 338.542 54.1042 336.5 52.8125C334.458 51.5208 332.042 50.875 329.25 50.875C324.875 50.875 321.479 52.25 319.062 55C316.688 57.7083 315.5 61.5417 315.5 66.5V87.1875C315.5 91.9375 316.688 95.625 319.062 98.25C321.479 100.875 324.875 102.188 329.25 102.188C332.042 102.188 334.458 101.542 336.5 100.25C338.542 98.9583 340.083 97.2083 341.125 95C342.208 92.7917 342.75 90.3542 342.75 87.6875L343.625 98.8125C342.208 102.562 339.958 105.375 336.875 107.25C333.833 109.083 330.146 110 325.812 110ZM390.875 109.938C385.833 109.938 381.5 108.958 377.875 107C374.25 105 371.479 102.104 369.562 98.3125C367.688 94.5208 366.75 89.9583 366.75 84.625V69.75C366.75 64.125 367.667 59.3333 369.5 55.375C371.333 51.375 373.979 48.3333 377.438 46.25C380.938 44.1667 385.146 43.125 390.062 43.125C394.812 43.125 398.875 44.125 402.25 46.125C405.625 48.125 408.188 51.0208 409.938 54.8125C411.729 58.6042 412.625 63.2083 412.625 68.625V80.375H372.562V72.125H403.938V68.0625C403.938 62.8125 402.729 58.75 400.312 55.875C397.896 52.9583 394.479 51.5 390.062 51.5C385.396 51.5 381.792 53.0208 379.25 56.0625C376.708 59.1042 375.438 63.4375 375.438 69.0625V84.875C375.438 90.1667 376.771 94.2708 379.438 97.1875C382.146 100.104 385.958 101.562 390.875 101.562C394.042 101.562 396.729 100.771 398.938 99.1875C401.146 97.6042 402.667 95.375 403.5 92.5L411.875 95.1875C410.708 99.8958 408.292 103.542 404.625 106.125C400.958 108.667 396.375 109.938 390.875 109.938Z" fill="#000206"/>
</svg>
